<svg width="60" height="10" viewBox="0 0 60 10" fill="none" xmlns="http://www.w3.org/2000/svg">
<path d="M5.98828 0.597656H7.77539V9H5.98828V5.50781H2.41406V9H0.638672V0.597656H2.41406V3.80273H5.98828V0.597656ZM14.7129 5.85352C14.7129 6.06055 14.7012 6.26172 14.6777 6.45703H10.3008C10.3594 6.83984 10.5254 7.14648 10.7988 7.37695C11.0723 7.60352 11.4062 7.7168 11.8008 7.7168C12.125 7.7168 12.3887 7.6543 12.5918 7.5293C12.7988 7.40039 12.9258 7.23047 12.9727 7.01953H14.6309C14.5332 7.65234 14.2305 8.16016 13.7227 8.54297C13.2148 8.92578 12.5898 9.11719 11.8477 9.11719C11.2773 9.11719 10.7539 8.98242 10.2773 8.71289C9.80469 8.43945 9.43164 8.06641 9.1582 7.59375C8.88477 7.11719 8.74805 6.59375 8.74805 6.02344C8.74805 5.16797 9.04297 4.44922 9.63281 3.86719C10.2266 3.28125 10.9531 2.98828 11.8125 2.98828C12.3359 2.98828 12.8203 3.11328 13.2656 3.36328C13.7109 3.61328 14.0625 3.95898 14.3203 4.40039C14.582 4.8418 14.7129 5.32617 14.7129 5.85352ZM10.3828 5.37891H12.9492C12.9258 5.08594 12.7969 4.8418 12.5625 4.64648C12.3281 4.45117 12.0527 4.35352 11.7363 4.35352C11.4043 4.35352 11.1211 4.43945 10.8867 4.61133C10.6523 4.7832 10.4844 5.03906 10.3828 5.37891ZM19.9453 0.597656H21.6387V9H19.9453V8.16211C19.5156 8.79883 18.8906 9.11719 18.0703 9.11719C17.5703 9.11719 17.1094 8.98047 16.6875 8.70703C16.2695 8.42969 15.9395 8.05664 15.6973 7.58789C15.4551 7.11523 15.334 6.60156 15.334 6.04688C15.334 5.49219 15.4551 4.98047 15.6973 4.51172C15.9395 4.03906 16.2695 3.66797 16.6875 3.39844C17.1094 3.125 17.5703 2.98828 18.0703 2.98828C18.8906 2.98828 19.5156 3.30859 19.9453 3.94922V0.597656ZM18.4688 7.5C18.8828 7.5 19.2324 7.36133 19.5176 7.08398C19.8027 6.80273 19.9453 6.45703 19.9453 6.04688C19.9453 5.64062 19.8027 5.29688 19.5176 5.01562C19.2324 4.73438 18.8828 4.59375 18.4688 4.59375C18.0625 4.59375 17.7148 4.73633 17.4258 5.02148C17.1367 5.30273 16.9922 5.64453 16.9922 6.04688C16.9922 6.45312 17.1348 6.79688 17.4199 7.07812C17.709 7.35938 18.0586 7.5 18.4688 7.5ZM26.0566 0.597656C26.8809 0.597656 27.5605 0.851562 28.0957 1.35938C28.6348 1.86719 28.9043 2.50977 28.9043 3.28711C28.9043 4.07227 28.6348 4.72266 28.0957 5.23828C27.5605 5.75391 26.8809 6.01172 26.0566 6.01172H24.6328V9H22.8574V0.597656H26.0566ZM26.0566 4.30664C26.3613 4.30664 26.6133 4.21094 26.8125 4.01953C27.0156 3.82422 27.1172 3.58008 27.1172 3.28711C27.1172 3.00586 27.0156 2.77148 26.8125 2.58398C26.6133 2.39648 26.3613 2.30273 26.0566 2.30273H24.6328V4.30664H26.0566ZM32.1797 2.98828C32.6055 2.98828 33.0059 3.06641 33.3809 3.22266C33.7598 3.37891 34.084 3.59375 34.3535 3.86719C34.627 4.13672 34.8418 4.46289 34.998 4.8457C35.1582 5.22461 35.2383 5.62891 35.2383 6.05859C35.2383 6.63281 35.1035 7.1543 34.834 7.62305C34.5684 8.0918 34.2012 8.45898 33.7324 8.72461C33.2676 8.98633 32.75 9.11719 32.1797 9.11719C31.3086 9.11719 30.5801 8.82617 29.9941 8.24414C29.4082 7.66211 29.1152 6.93359 29.1152 6.05859C29.1152 5.18359 29.4082 4.45312 29.9941 3.86719C30.5801 3.28125 31.3086 2.98828 32.1797 2.98828ZM32.1797 4.60547C31.7773 4.60547 31.4414 4.74414 31.1719 5.02148C30.9062 5.29492 30.7734 5.64062 30.7734 6.05859C30.7734 6.46484 30.9062 6.80664 31.1719 7.08398C31.4414 7.36133 31.7773 7.5 32.1797 7.5C32.5742 7.5 32.9062 7.36133 33.1758 7.08398C33.4453 6.80664 33.5801 6.46484 33.5801 6.05859C33.5801 5.64062 33.4453 5.29492 33.1758 5.02148C32.9102 4.74414 32.5781 4.60547 32.1797 4.60547ZM38.9297 9.11719C38.0586 9.11719 37.3301 8.82617 36.7441 8.24414C36.1582 7.66211 35.8652 6.93359 35.8652 6.05859C35.8652 5.18359 36.1582 4.45312 36.7441 3.86719C37.3301 3.28125 38.0586 2.98828 38.9297 2.98828C39.668 2.98828 40.3125 3.21289 40.8633 3.66211C41.4141 4.11133 41.7285 4.67383 41.8066 5.34961H40.0898C40.0312 5.13086 39.8926 4.95312 39.6738 4.81641C39.459 4.67578 39.2109 4.60547 38.9297 4.60547C38.5273 4.60547 38.1914 4.74414 37.9219 5.02148C37.6562 5.29492 37.5234 5.64062 37.5234 6.05859C37.5234 6.46484 37.6562 6.80664 37.9219 7.08398C38.1914 7.36133 38.5273 7.5 38.9297 7.5C39.2109 7.5 39.4609 7.42578 39.6797 7.27734C39.9023 7.12891 40.043 6.93945 40.1016 6.70898H41.8184C41.7754 7.16992 41.6191 7.58594 41.3496 7.95703C41.0801 8.32422 40.7324 8.60938 40.3066 8.8125C39.8848 9.01562 39.4258 9.11719 38.9297 9.11719ZM48.6914 9H46.5234L44.3848 6.35742V9H42.6914V0.597656H44.3848V5.54297L46.4238 3.10547H48.5039L46.0547 5.95312L48.6914 9ZM54.5332 5.85352C54.5332 6.06055 54.5215 6.26172 54.498 6.45703H50.1211C50.1797 6.83984 50.3457 7.14648 50.6191 7.37695C50.8926 7.60352 51.2266 7.7168 51.6211 7.7168C51.9453 7.7168 52.209 7.6543 52.4121 7.5293C52.6191 7.40039 52.7461 7.23047 52.793 7.01953H54.4512C54.3535 7.65234 54.0508 8.16016 53.543 8.54297C53.0352 8.92578 52.4102 9.11719 51.668 9.11719C51.0977 9.11719 50.5742 8.98242 50.0977 8.71289C49.625 8.43945 49.252 8.06641 48.9785 7.59375C48.7051 7.11719 48.5684 6.59375 48.5684 6.02344C48.5684 5.16797 48.8633 4.44922 49.4531 3.86719C50.0469 3.28125 50.7734 2.98828 51.6328 2.98828C52.1562 2.98828 52.6406 3.11328 53.0859 3.36328C53.5312 3.61328 53.8828 3.95898 54.1406 4.40039C54.4023 4.8418 54.5332 5.32617 54.5332 5.85352ZM50.2031 5.37891H52.7695C52.7461 5.08594 52.6172 4.8418 52.3828 4.64648C52.1484 4.45117 51.873 4.35352 51.5566 4.35352C51.2246 4.35352 50.9414 4.43945 50.707 4.61133C50.4727 4.7832 50.3047 5.03906 50.2031 5.37891ZM59.0918 4.7168H57.6445V6.57422C57.6445 6.87891 57.7363 7.10742 57.9199 7.25977C58.1074 7.41211 58.3555 7.48828 58.6641 7.48828C58.8281 7.48828 58.9707 7.47266 59.0918 7.44141V9C58.8496 9.0625 58.5781 9.09375 58.2773 9.09375C57.5703 9.09375 57.0059 8.87305 56.584 8.43164C56.1621 7.99023 55.9512 7.37891 55.9512 6.59766V4.7168H54.8555V3.10547H55.9512V1.55859H57.6445V3.10547H59.0918V4.7168Z" fill="#1DFFA0"/>
</svg>
